<svg xmlns="http://www.w3.org/2000/svg" viewBox="0 0 320 112" width="320" height="112" role="img" aria-label="Final Account &amp; Retention Release">
    <rect width="320" height="112" fill="#F6F6F3"/>
    <g opacity=".72"><line x1="0" y1="0" x2="0" y2="112" stroke="#DDDDE2" stroke-width="0.6"/><line x1="16" y1="0" x2="16" y2="112" stroke="#DDDDE2" stroke-width="0.6"/><line x1="32" y1="0" x2="32" y2="112" stroke="#DDDDE2" stroke-width="0.6"/><line x1="48" y1="0" x2="48" y2="112" stroke="#DDDDE2" stroke-width="0.6"/><line x1="64" y1="0" x2="64" y2="112" stroke="#DDDDE2" stroke-width="0.6"/><line x1="80" y1="0" x2="80" y2="112" stroke="#DDDDE2" stroke-width="0.6"/><line x1="96" y1="0" x2="96" y2="112" stroke="#DDDDE2" stroke-width="0.6"/><line x1="112" y1="0" x2="112" y2="112" stroke="#DDDDE2" stroke-width="0.6"/><line x1="128" y1="0" x2="128" y2="112" stroke="#DDDDE2" stroke-width="0.6"/><line x1="144" y1="0" x2="144" y2="112" stroke="#DDDDE2" stroke-width="0.6"/><line x1="160" y1="0" x2="160" y2="112" stroke="#DDDDE2" stroke-width="0.6"/><line x1="176" y1="0" x2="176" y2="112" stroke="#DDDDE2" stroke-width="0.6"/><line x1="192" y1="0" x2="192" y2="112" stroke="#DDDDE2" stroke-width="0.6"/><line x1="208" y1="0" x2="208" y2="112" stroke="#DDDDE2" stroke-width="0.6"/><line x1="224" y1="0" x2="224" y2="112" stroke="#DDDDE2" stroke-width="0.6"/><line x1="240" y1="0" x2="240" y2="112" stroke="#DDDDE2" stroke-width="0.6"/><line x1="256" y1="0" x2="256" y2="112" stroke="#DDDDE2" stroke-width="0.6"/><line x1="272" y1="0" x2="272" y2="112" stroke="#DDDDE2" stroke-width="0.6"/><line x1="288" y1="0" x2="288" y2="112" stroke="#DDDDE2" stroke-width="0.6"/><line x1="304" y1="0" x2="304" y2="112" stroke="#DDDDE2" stroke-width="0.6"/><line x1="320" y1="0" x2="320" y2="112" stroke="#DDDDE2" stroke-width="0.6"/><line x1="0" y1="0" x2="320" y2="0" stroke="#DDDDE2" stroke-width="0.6"/><line x1="0" y1="16" x2="320" y2="16" stroke="#DDDDE2" stroke-width="0.6"/><line x1="0" y1="32" x2="320" y2="32" stroke="#DDDDE2" stroke-width="0.6"/><line x1="0" y1="48" x2="320" y2="48" stroke="#DDDDE2" stroke-width="0.6"/><line x1="0" y1="64" x2="320" y2="64" stroke="#DDDDE2" stroke-width="0.6"/><line x1="0" y1="80" x2="320" y2="80" stroke="#DDDDE2" stroke-width="0.6"/><line x1="0" y1="96" x2="320" y2="96" stroke="#DDDDE2" stroke-width="0.6"/><line x1="0" y1="112" x2="320" y2="112" stroke="#DDDDE2" stroke-width="0.6"/></g>
    <rect x="0" y="0" width="5" height="112" fill="#526F52"/>
    <g color="#526F52" stroke-linecap="round" stroke-linejoin="round"><path d="M68 34 h70 v53 h-70 z" fill="none" stroke="currentColor" stroke-width="1.5"/><text x="103" y="54" font-size="8" text-anchor="middle" font-family="IBM Plex Mono, ui-monospace, monospace" font-weight="700" fill="currentColor">FINAL</text><text x="103" y="69" font-size="8" text-anchor="middle" font-family="IBM Plex Mono, ui-monospace, monospace" font-weight="700" fill="currentColor">ACCOUNT</text><line x1="161" y1="60" x2="210" y2="60" stroke="currentColor" stroke-width="1.8"/><path d="M201 50 l12 10 -12 10" fill="none" stroke="currentColor" stroke-width="1.8"/><circle cx="248" cy="60" r="21" fill="currentColor" fill-opacity="0.1" stroke="currentColor" stroke-width="1.5"/><text x="248" y="64" font-size="14" text-anchor="middle" font-family="IBM Plex Mono, ui-monospace, monospace" font-weight="700" fill="currentColor">₹</text><text x="248" y="93" font-size="6.5" text-anchor="middle" font-family="IBM Plex Mono, ui-monospace, monospace" font-weight="600" fill="currentColor">RETENTION RELEASE</text></g>
    <g><rect x="272" y="9" width="37" height="17" rx="8.5" fill="#526F52" fill-opacity=".10" stroke="#526F52" stroke-opacity=".30"/><text x="290.5" y="20.5" text-anchor="middle" font-family="IBM Plex Mono, ui-monospace, monospace" font-size="7.5" font-weight="700" fill="#526F52">POST</text></g>
    </svg>