<svg xmlns="http://www.w3.org/2000/svg" viewBox="0 0 320 112" width="320" height="112" role="img" aria-label="Handover &amp; Snag Closure">
    <rect width="320" height="112" fill="#F6F6F3"/>
    <g opacity=".72"><line x1="0" y1="0" x2="0" y2="112" stroke="#DDDDE2" stroke-width="0.6"/><line x1="16" y1="0" x2="16" y2="112" stroke="#DDDDE2" stroke-width="0.6"/><line x1="32" y1="0" x2="32" y2="112" stroke="#DDDDE2" stroke-width="0.6"/><line x1="48" y1="0" x2="48" y2="112" stroke="#DDDDE2" stroke-width="0.6"/><line x1="64" y1="0" x2="64" y2="112" stroke="#DDDDE2" stroke-width="0.6"/><line x1="80" y1="0" x2="80" y2="112" stroke="#DDDDE2" stroke-width="0.6"/><line x1="96" y1="0" x2="96" y2="112" stroke="#DDDDE2" stroke-width="0.6"/><line x1="112" y1="0" x2="112" y2="112" stroke="#DDDDE2" stroke-width="0.6"/><line x1="128" y1="0" x2="128" y2="112" stroke="#DDDDE2" stroke-width="0.6"/><line x1="144" y1="0" x2="144" y2="112" stroke="#DDDDE2" stroke-width="0.6"/><line x1="160" y1="0" x2="160" y2="112" stroke="#DDDDE2" stroke-width="0.6"/><line x1="176" y1="0" x2="176" y2="112" stroke="#DDDDE2" stroke-width="0.6"/><line x1="192" y1="0" x2="192" y2="112" stroke="#DDDDE2" stroke-width="0.6"/><line x1="208" y1="0" x2="208" y2="112" stroke="#DDDDE2" stroke-width="0.6"/><line x1="224" y1="0" x2="224" y2="112" stroke="#DDDDE2" stroke-width="0.6"/><line x1="240" y1="0" x2="240" y2="112" stroke="#DDDDE2" stroke-width="0.6"/><line x1="256" y1="0" x2="256" y2="112" stroke="#DDDDE2" stroke-width="0.6"/><line x1="272" y1="0" x2="272" y2="112" stroke="#DDDDE2" stroke-width="0.6"/><line x1="288" y1="0" x2="288" y2="112" stroke="#DDDDE2" stroke-width="0.6"/><line x1="304" y1="0" x2="304" y2="112" stroke="#DDDDE2" stroke-width="0.6"/><line x1="320" y1="0" x2="320" y2="112" stroke="#DDDDE2" stroke-width="0.6"/><line x1="0" y1="0" x2="320" y2="0" stroke="#DDDDE2" stroke-width="0.6"/><line x1="0" y1="16" x2="320" y2="16" stroke="#DDDDE2" stroke-width="0.6"/><line x1="0" y1="32" x2="320" y2="32" stroke="#DDDDE2" stroke-width="0.6"/><line x1="0" y1="48" x2="320" y2="48" stroke="#DDDDE2" stroke-width="0.6"/><line x1="0" y1="64" x2="320" y2="64" stroke="#DDDDE2" stroke-width="0.6"/><line x1="0" y1="80" x2="320" y2="80" stroke="#DDDDE2" stroke-width="0.6"/><line x1="0" y1="96" x2="320" y2="96" stroke="#DDDDE2" stroke-width="0.6"/><line x1="0" y1="112" x2="320" y2="112" stroke="#DDDDE2" stroke-width="0.6"/></g>
    <rect x="0" y="0" width="5" height="112" fill="#416C6C"/>
    <g color="#416C6C" stroke-linecap="round" stroke-linejoin="round"><path d="M62 73 h71 l17-20 -17-20 h-71 z" fill="currentColor" fill-opacity="0.09" stroke="currentColor" stroke-width="1.7"/><path d="M 85 60 l 4.25 4.25 l 8.5 -10.2" fill="none" stroke="currentColor" stroke-width="1.7" stroke-linecap="round" stroke-linejoin="round"/><path d="M173 58 h50" fill="none" stroke="currentColor" stroke-width="1.8"/><path d="M214 48 l12 10 -12 10" fill="none" stroke="currentColor" stroke-width="1.8" stroke-linejoin="round"/><path d="M248 31 v55 h-18 v-55 z" fill="none" stroke="currentColor" stroke-width="1.7"/><circle cx="235" cy="58" r="2.5" fill="currentColor" stroke="none"/><text x="188" y="91" font-size="7" text-anchor="middle" font-family="IBM Plex Mono, ui-monospace, monospace" font-weight="600" fill="currentColor">CLOSE &amp; HAND OVER</text></g>
    <g><rect x="272" y="9" width="37" height="17" rx="8.5" fill="#416C6C" fill-opacity=".10" stroke="#416C6C" stroke-opacity=".30"/><text x="290.5" y="20.5" text-anchor="middle" font-family="IBM Plex Mono, ui-monospace, monospace" font-size="7.5" font-weight="700" fill="#416C6C">POST</text></g>
    </svg>