<svg xmlns="http://www.w3.org/2000/svg" viewBox="0 0 320 112" width="320" height="112" role="img" aria-label="Lab &amp; Third-Party Testing">
    <rect width="320" height="112" fill="#F8F8F5"/>
    <g opacity=".72"><line x1="0" y1="0" x2="0" y2="112" stroke="#E1E4DF" stroke-width="0.6"/><line x1="16" y1="0" x2="16" y2="112" stroke="#E1E4DF" stroke-width="0.6"/><line x1="32" y1="0" x2="32" y2="112" stroke="#E1E4DF" stroke-width="0.6"/><line x1="48" y1="0" x2="48" y2="112" stroke="#E1E4DF" stroke-width="0.6"/><line x1="64" y1="0" x2="64" y2="112" stroke="#E1E4DF" stroke-width="0.6"/><line x1="80" y1="0" x2="80" y2="112" stroke="#E1E4DF" stroke-width="0.6"/><line x1="96" y1="0" x2="96" y2="112" stroke="#E1E4DF" stroke-width="0.6"/><line x1="112" y1="0" x2="112" y2="112" stroke="#E1E4DF" stroke-width="0.6"/><line x1="128" y1="0" x2="128" y2="112" stroke="#E1E4DF" stroke-width="0.6"/><line x1="144" y1="0" x2="144" y2="112" stroke="#E1E4DF" stroke-width="0.6"/><line x1="160" y1="0" x2="160" y2="112" stroke="#E1E4DF" stroke-width="0.6"/><line x1="176" y1="0" x2="176" y2="112" stroke="#E1E4DF" stroke-width="0.6"/><line x1="192" y1="0" x2="192" y2="112" stroke="#E1E4DF" stroke-width="0.6"/><line x1="208" y1="0" x2="208" y2="112" stroke="#E1E4DF" stroke-width="0.6"/><line x1="224" y1="0" x2="224" y2="112" stroke="#E1E4DF" stroke-width="0.6"/><line x1="240" y1="0" x2="240" y2="112" stroke="#E1E4DF" stroke-width="0.6"/><line x1="256" y1="0" x2="256" y2="112" stroke="#E1E4DF" stroke-width="0.6"/><line x1="272" y1="0" x2="272" y2="112" stroke="#E1E4DF" stroke-width="0.6"/><line x1="288" y1="0" x2="288" y2="112" stroke="#E1E4DF" stroke-width="0.6"/><line x1="304" y1="0" x2="304" y2="112" stroke="#E1E4DF" stroke-width="0.6"/><line x1="320" y1="0" x2="320" y2="112" stroke="#E1E4DF" stroke-width="0.6"/><line x1="0" y1="0" x2="320" y2="0" stroke="#E1E4DF" stroke-width="0.6"/><line x1="0" y1="16" x2="320" y2="16" stroke="#E1E4DF" stroke-width="0.6"/><line x1="0" y1="32" x2="320" y2="32" stroke="#E1E4DF" stroke-width="0.6"/><line x1="0" y1="48" x2="320" y2="48" stroke="#E1E4DF" stroke-width="0.6"/><line x1="0" y1="64" x2="320" y2="64" stroke="#E1E4DF" stroke-width="0.6"/><line x1="0" y1="80" x2="320" y2="80" stroke="#E1E4DF" stroke-width="0.6"/><line x1="0" y1="96" x2="320" y2="96" stroke="#E1E4DF" stroke-width="0.6"/><line x1="0" y1="112" x2="320" y2="112" stroke="#E1E4DF" stroke-width="0.6"/></g>
    <rect x="0" y="0" width="5" height="112" fill="#655A86"/>
    <g color="#655A86" stroke-linecap="round" stroke-linejoin="round"><path d="M87 26 v24 l-18 34 q-4 8 6 8 h45 q10 0 6-8 l-18-34 v-24 M80 26 h35" fill="currentColor" fill-opacity="0.09" stroke="currentColor" stroke-width="1.7" stroke-linejoin="round"/><path d="M78 73 q15 -7 38 0" fill="none" stroke="currentColor" stroke-width="1.4"/><path d="M186 57.5 l12.0 6.75 v13.5 l-12.0 6.75 l-12.0 -6.75 v-13.5 z M186 57.5 v13.5 M174.0 64.25 l12.0 6.75 l12.0 -6.75" fill="none" stroke="currentColor" stroke-width="1.5" stroke-linejoin="round"/><circle cx="239" cy="55" r="17" fill="currentColor" fill-opacity="0.12" stroke="currentColor" stroke-width="1.6"/><text x="239" y="59" font-size="10" text-anchor="middle" font-family="IBM Plex Mono, ui-monospace, monospace" font-weight="700" fill="currentColor">3P</text><line x1="203" y1="68" x2="221" y2="61" stroke="currentColor" stroke-width="1.2" stroke-dasharray="4 3"/></g>
    <g><rect x="272" y="9" width="37" height="17" rx="8.5" fill="#655A86" fill-opacity=".10" stroke="#655A86" stroke-opacity=".30"/><text x="290.5" y="20.5" text-anchor="middle" font-family="IBM Plex Mono, ui-monospace, monospace" font-size="7.5" font-weight="700" fill="#655A86">BUILD</text></g>
    </svg>