<svg xmlns="http://www.w3.org/2000/svg" viewBox="0 0 320 112" width="320" height="112" role="img" aria-label="Procurement / PO Tracker">
    <rect width="320" height="112" fill="#F8F8F5"/>
    <g opacity=".72"><line x1="0" y1="0" x2="0" y2="112" stroke="#E1E4DF" stroke-width="0.6"/><line x1="16" y1="0" x2="16" y2="112" stroke="#E1E4DF" stroke-width="0.6"/><line x1="32" y1="0" x2="32" y2="112" stroke="#E1E4DF" stroke-width="0.6"/><line x1="48" y1="0" x2="48" y2="112" stroke="#E1E4DF" stroke-width="0.6"/><line x1="64" y1="0" x2="64" y2="112" stroke="#E1E4DF" stroke-width="0.6"/><line x1="80" y1="0" x2="80" y2="112" stroke="#E1E4DF" stroke-width="0.6"/><line x1="96" y1="0" x2="96" y2="112" stroke="#E1E4DF" stroke-width="0.6"/><line x1="112" y1="0" x2="112" y2="112" stroke="#E1E4DF" stroke-width="0.6"/><line x1="128" y1="0" x2="128" y2="112" stroke="#E1E4DF" stroke-width="0.6"/><line x1="144" y1="0" x2="144" y2="112" stroke="#E1E4DF" stroke-width="0.6"/><line x1="160" y1="0" x2="160" y2="112" stroke="#E1E4DF" stroke-width="0.6"/><line x1="176" y1="0" x2="176" y2="112" stroke="#E1E4DF" stroke-width="0.6"/><line x1="192" y1="0" x2="192" y2="112" stroke="#E1E4DF" stroke-width="0.6"/><line x1="208" y1="0" x2="208" y2="112" stroke="#E1E4DF" stroke-width="0.6"/><line x1="224" y1="0" x2="224" y2="112" stroke="#E1E4DF" stroke-width="0.6"/><line x1="240" y1="0" x2="240" y2="112" stroke="#E1E4DF" stroke-width="0.6"/><line x1="256" y1="0" x2="256" y2="112" stroke="#E1E4DF" stroke-width="0.6"/><line x1="272" y1="0" x2="272" y2="112" stroke="#E1E4DF" stroke-width="0.6"/><line x1="288" y1="0" x2="288" y2="112" stroke="#E1E4DF" stroke-width="0.6"/><line x1="304" y1="0" x2="304" y2="112" stroke="#E1E4DF" stroke-width="0.6"/><line x1="320" y1="0" x2="320" y2="112" stroke="#E1E4DF" stroke-width="0.6"/><line x1="0" y1="0" x2="320" y2="0" stroke="#E1E4DF" stroke-width="0.6"/><line x1="0" y1="16" x2="320" y2="16" stroke="#E1E4DF" stroke-width="0.6"/><line x1="0" y1="32" x2="320" y2="32" stroke="#E1E4DF" stroke-width="0.6"/><line x1="0" y1="48" x2="320" y2="48" stroke="#E1E4DF" stroke-width="0.6"/><line x1="0" y1="64" x2="320" y2="64" stroke="#E1E4DF" stroke-width="0.6"/><line x1="0" y1="80" x2="320" y2="80" stroke="#E1E4DF" stroke-width="0.6"/><line x1="0" y1="96" x2="320" y2="96" stroke="#E1E4DF" stroke-width="0.6"/><line x1="0" y1="112" x2="320" y2="112" stroke="#E1E4DF" stroke-width="0.6"/></g>
    <rect x="0" y="0" width="5" height="112" fill="#6B7950"/>
    <g color="#6B7950" stroke-linecap="round" stroke-linejoin="round"><path d="M63 43 h19 l10 36 h86 l12 -26 h-91" fill="none" stroke="currentColor" stroke-width="1.8" stroke-linecap="round" stroke-linejoin="round"/><circle cx="111" cy="87" r="6" fill="currentColor" stroke="currentColor" stroke-width="1"/><circle cx="163" cy="87" r="6" fill="currentColor" stroke="currentColor" stroke-width="1"/><path d="M225 42.0 l16.0 9.0 v18.0 l-16.0 9.0 l-16.0 -9.0 v-18.0 z M225 42.0 v18.0 M209.0 51.0 l16.0 9.0 l16.0 -9.0" fill="currentColor" stroke="currentColor" stroke-width="1.5" stroke-linejoin="round"/><path d="M252 35 h22 l7 7 v35 h-29 z M274 35 v7 h7" fill="none" stroke="currentColor" stroke-width="1.6" stroke-linejoin="round"/><text x="266" y="60" font-size="8" text-anchor="middle" font-family="IBM Plex Mono, ui-monospace, monospace" font-weight="700" fill="currentColor">PO</text><line x1="185" y1="60" x2="204" y2="60" stroke="currentColor" stroke-width="1.8" stroke-linecap="round"/><path d="M204 60 L197.2 64.2 M204 60 L197.2 55.8" fill="none" stroke="currentColor" stroke-width="1.8" stroke-linecap="round"/></g>
    <g><rect x="272" y="9" width="37" height="17" rx="8.5" fill="#6B7950" fill-opacity=".10" stroke="#6B7950" stroke-opacity=".30"/><text x="290.5" y="20.5" text-anchor="middle" font-family="IBM Plex Mono, ui-monospace, monospace" font-size="7.5" font-weight="700" fill="#6B7950">BUILD</text></g>
    </svg>