<svg xmlns="http://www.w3.org/2000/svg" viewBox="0 0 320 112" width="320" height="112" role="img" aria-label="Site Instructions">
    <rect width="320" height="112" fill="#F8F8F5"/>
    <g opacity=".72"><line x1="0" y1="0" x2="0" y2="112" stroke="#E1E4DF" stroke-width="0.6"/><line x1="16" y1="0" x2="16" y2="112" stroke="#E1E4DF" stroke-width="0.6"/><line x1="32" y1="0" x2="32" y2="112" stroke="#E1E4DF" stroke-width="0.6"/><line x1="48" y1="0" x2="48" y2="112" stroke="#E1E4DF" stroke-width="0.6"/><line x1="64" y1="0" x2="64" y2="112" stroke="#E1E4DF" stroke-width="0.6"/><line x1="80" y1="0" x2="80" y2="112" stroke="#E1E4DF" stroke-width="0.6"/><line x1="96" y1="0" x2="96" y2="112" stroke="#E1E4DF" stroke-width="0.6"/><line x1="112" y1="0" x2="112" y2="112" stroke="#E1E4DF" stroke-width="0.6"/><line x1="128" y1="0" x2="128" y2="112" stroke="#E1E4DF" stroke-width="0.6"/><line x1="144" y1="0" x2="144" y2="112" stroke="#E1E4DF" stroke-width="0.6"/><line x1="160" y1="0" x2="160" y2="112" stroke="#E1E4DF" stroke-width="0.6"/><line x1="176" y1="0" x2="176" y2="112" stroke="#E1E4DF" stroke-width="0.6"/><line x1="192" y1="0" x2="192" y2="112" stroke="#E1E4DF" stroke-width="0.6"/><line x1="208" y1="0" x2="208" y2="112" stroke="#E1E4DF" stroke-width="0.6"/><line x1="224" y1="0" x2="224" y2="112" stroke="#E1E4DF" stroke-width="0.6"/><line x1="240" y1="0" x2="240" y2="112" stroke="#E1E4DF" stroke-width="0.6"/><line x1="256" y1="0" x2="256" y2="112" stroke="#E1E4DF" stroke-width="0.6"/><line x1="272" y1="0" x2="272" y2="112" stroke="#E1E4DF" stroke-width="0.6"/><line x1="288" y1="0" x2="288" y2="112" stroke="#E1E4DF" stroke-width="0.6"/><line x1="304" y1="0" x2="304" y2="112" stroke="#E1E4DF" stroke-width="0.6"/><line x1="320" y1="0" x2="320" y2="112" stroke="#E1E4DF" stroke-width="0.6"/><line x1="0" y1="0" x2="320" y2="0" stroke="#E1E4DF" stroke-width="0.6"/><line x1="0" y1="16" x2="320" y2="16" stroke="#E1E4DF" stroke-width="0.6"/><line x1="0" y1="32" x2="320" y2="32" stroke="#E1E4DF" stroke-width="0.6"/><line x1="0" y1="48" x2="320" y2="48" stroke="#E1E4DF" stroke-width="0.6"/><line x1="0" y1="64" x2="320" y2="64" stroke="#E1E4DF" stroke-width="0.6"/><line x1="0" y1="80" x2="320" y2="80" stroke="#E1E4DF" stroke-width="0.6"/><line x1="0" y1="96" x2="320" y2="96" stroke="#E1E4DF" stroke-width="0.6"/><line x1="0" y1="112" x2="320" y2="112" stroke="#E1E4DF" stroke-width="0.6"/></g>
    <rect x="0" y="0" width="5" height="112" fill="#86514A"/>
    <g color="#86514A" stroke-linecap="round" stroke-linejoin="round"><path d="M72 52 h25 l37-19 v49 l-37-19 h-25 z" fill="currentColor" fill-opacity="0.1" stroke="currentColor" stroke-width="1.8" stroke-linejoin="round"/><path d="M73 63 l10 25 h15 l-9-25" fill="none" stroke="currentColor" stroke-width="1.5"/><line x1="146" y1="43" x2="171" y2="31" stroke="currentColor" stroke-width="1.5"/><line x1="148" y1="57" x2="178" y2="57" stroke="currentColor" stroke-width="1.5"/><line x1="146" y1="70" x2="171" y2="82" stroke="currentColor" stroke-width="1.5"/><path d="M212 31 h34 l10 10 v46 h-44 z M246 31 v10 h10" fill="none" stroke="currentColor" stroke-width="1.6" stroke-linejoin="round"/><text x="234" y="62" font-size="10" text-anchor="middle" font-family="IBM Plex Mono, ui-monospace, monospace" font-weight="700" fill="currentColor">SI</text></g>
    <g><rect x="272" y="9" width="37" height="17" rx="8.5" fill="#86514A" fill-opacity=".10" stroke="#86514A" stroke-opacity=".30"/><text x="290.5" y="20.5" text-anchor="middle" font-family="IBM Plex Mono, ui-monospace, monospace" font-size="7.5" font-weight="700" fill="#86514A">BUILD</text></g>
    </svg>