<svg xmlns="http://www.w3.org/2000/svg" viewBox="0 0 320 112" width="320" height="112" role="img" aria-label="Statutory Approvals &amp; Permits">
    <rect width="320" height="112" fill="#FCFBF7"/>
    <g opacity=".72"><line x1="0" y1="0" x2="0" y2="112" stroke="#EAE5D9" stroke-width="0.6"/><line x1="16" y1="0" x2="16" y2="112" stroke="#EAE5D9" stroke-width="0.6"/><line x1="32" y1="0" x2="32" y2="112" stroke="#EAE5D9" stroke-width="0.6"/><line x1="48" y1="0" x2="48" y2="112" stroke="#EAE5D9" stroke-width="0.6"/><line x1="64" y1="0" x2="64" y2="112" stroke="#EAE5D9" stroke-width="0.6"/><line x1="80" y1="0" x2="80" y2="112" stroke="#EAE5D9" stroke-width="0.6"/><line x1="96" y1="0" x2="96" y2="112" stroke="#EAE5D9" stroke-width="0.6"/><line x1="112" y1="0" x2="112" y2="112" stroke="#EAE5D9" stroke-width="0.6"/><line x1="128" y1="0" x2="128" y2="112" stroke="#EAE5D9" stroke-width="0.6"/><line x1="144" y1="0" x2="144" y2="112" stroke="#EAE5D9" stroke-width="0.6"/><line x1="160" y1="0" x2="160" y2="112" stroke="#EAE5D9" stroke-width="0.6"/><line x1="176" y1="0" x2="176" y2="112" stroke="#EAE5D9" stroke-width="0.6"/><line x1="192" y1="0" x2="192" y2="112" stroke="#EAE5D9" stroke-width="0.6"/><line x1="208" y1="0" x2="208" y2="112" stroke="#EAE5D9" stroke-width="0.6"/><line x1="224" y1="0" x2="224" y2="112" stroke="#EAE5D9" stroke-width="0.6"/><line x1="240" y1="0" x2="240" y2="112" stroke="#EAE5D9" stroke-width="0.6"/><line x1="256" y1="0" x2="256" y2="112" stroke="#EAE5D9" stroke-width="0.6"/><line x1="272" y1="0" x2="272" y2="112" stroke="#EAE5D9" stroke-width="0.6"/><line x1="288" y1="0" x2="288" y2="112" stroke="#EAE5D9" stroke-width="0.6"/><line x1="304" y1="0" x2="304" y2="112" stroke="#EAE5D9" stroke-width="0.6"/><line x1="320" y1="0" x2="320" y2="112" stroke="#EAE5D9" stroke-width="0.6"/><line x1="0" y1="0" x2="320" y2="0" stroke="#EAE5D9" stroke-width="0.6"/><line x1="0" y1="16" x2="320" y2="16" stroke="#EAE5D9" stroke-width="0.6"/><line x1="0" y1="32" x2="320" y2="32" stroke="#EAE5D9" stroke-width="0.6"/><line x1="0" y1="48" x2="320" y2="48" stroke="#EAE5D9" stroke-width="0.6"/><line x1="0" y1="64" x2="320" y2="64" stroke="#EAE5D9" stroke-width="0.6"/><line x1="0" y1="80" x2="320" y2="80" stroke="#EAE5D9" stroke-width="0.6"/><line x1="0" y1="96" x2="320" y2="96" stroke="#EAE5D9" stroke-width="0.6"/><line x1="0" y1="112" x2="320" y2="112" stroke="#EAE5D9" stroke-width="0.6"/></g>
    <rect x="0" y="0" width="5" height="112" fill="#4F806A"/>
    <g color="#4F806A" stroke-linecap="round" stroke-linejoin="round"><path d="M104 27 l28 10 v20 c0 19 -12 29 -28 37 -16 -8 -28 -18 -28 -37 V37 z" fill="currentColor" fill-opacity="0.1" stroke="currentColor" stroke-width="1.8"/><path d="M 91 59 l 5.5 5.5 l 11.0 -13.200000000000001" fill="none" stroke="currentColor" stroke-width="2.2" stroke-linecap="round" stroke-linejoin="round"/><rect x="165" y="34" width="79" height="49" rx="6" fill="none" stroke="currentColor" stroke-width="1.6"/><text x="204.5" y="51" font-size="9" text-anchor="middle" font-family="IBM Plex Mono, ui-monospace, monospace" font-weight="700" fill="currentColor">PERMIT</text><line x1="176" y1="61" x2="233" y2="61" stroke="currentColor" stroke-width="1.2"/><circle cx="204" cy="72" r="7" fill="currentColor" fill-opacity="0.16" stroke="currentColor" stroke-width="1.3"/><text x="204" y="75" font-size="9" text-anchor="middle" font-family="IBM Plex Mono, ui-monospace, monospace" font-weight="700" fill="currentColor">✓</text></g>
    <g><rect x="272" y="9" width="37" height="17" rx="8.5" fill="#4F806A" fill-opacity=".10" stroke="#4F806A" stroke-opacity=".30"/><text x="290.5" y="20.5" text-anchor="middle" font-family="IBM Plex Mono, ui-monospace, monospace" font-size="7.5" font-weight="700" fill="#4F806A">PRE</text></g>
    </svg>