<svg xmlns="http://www.w3.org/2000/svg" viewBox="0 0 320 112" width="320" height="112" role="img" aria-label="Toolbox Talks">
    <rect width="320" height="112" fill="#F8F8F5"/>
    <g opacity=".72"><line x1="0" y1="0" x2="0" y2="112" stroke="#E1E4DF" stroke-width="0.6"/><line x1="16" y1="0" x2="16" y2="112" stroke="#E1E4DF" stroke-width="0.6"/><line x1="32" y1="0" x2="32" y2="112" stroke="#E1E4DF" stroke-width="0.6"/><line x1="48" y1="0" x2="48" y2="112" stroke="#E1E4DF" stroke-width="0.6"/><line x1="64" y1="0" x2="64" y2="112" stroke="#E1E4DF" stroke-width="0.6"/><line x1="80" y1="0" x2="80" y2="112" stroke="#E1E4DF" stroke-width="0.6"/><line x1="96" y1="0" x2="96" y2="112" stroke="#E1E4DF" stroke-width="0.6"/><line x1="112" y1="0" x2="112" y2="112" stroke="#E1E4DF" stroke-width="0.6"/><line x1="128" y1="0" x2="128" y2="112" stroke="#E1E4DF" stroke-width="0.6"/><line x1="144" y1="0" x2="144" y2="112" stroke="#E1E4DF" stroke-width="0.6"/><line x1="160" y1="0" x2="160" y2="112" stroke="#E1E4DF" stroke-width="0.6"/><line x1="176" y1="0" x2="176" y2="112" stroke="#E1E4DF" stroke-width="0.6"/><line x1="192" y1="0" x2="192" y2="112" stroke="#E1E4DF" stroke-width="0.6"/><line x1="208" y1="0" x2="208" y2="112" stroke="#E1E4DF" stroke-width="0.6"/><line x1="224" y1="0" x2="224" y2="112" stroke="#E1E4DF" stroke-width="0.6"/><line x1="240" y1="0" x2="240" y2="112" stroke="#E1E4DF" stroke-width="0.6"/><line x1="256" y1="0" x2="256" y2="112" stroke="#E1E4DF" stroke-width="0.6"/><line x1="272" y1="0" x2="272" y2="112" stroke="#E1E4DF" stroke-width="0.6"/><line x1="288" y1="0" x2="288" y2="112" stroke="#E1E4DF" stroke-width="0.6"/><line x1="304" y1="0" x2="304" y2="112" stroke="#E1E4DF" stroke-width="0.6"/><line x1="320" y1="0" x2="320" y2="112" stroke="#E1E4DF" stroke-width="0.6"/><line x1="0" y1="0" x2="320" y2="0" stroke="#E1E4DF" stroke-width="0.6"/><line x1="0" y1="16" x2="320" y2="16" stroke="#E1E4DF" stroke-width="0.6"/><line x1="0" y1="32" x2="320" y2="32" stroke="#E1E4DF" stroke-width="0.6"/><line x1="0" y1="48" x2="320" y2="48" stroke="#E1E4DF" stroke-width="0.6"/><line x1="0" y1="64" x2="320" y2="64" stroke="#E1E4DF" stroke-width="0.6"/><line x1="0" y1="80" x2="320" y2="80" stroke="#E1E4DF" stroke-width="0.6"/><line x1="0" y1="96" x2="320" y2="96" stroke="#E1E4DF" stroke-width="0.6"/><line x1="0" y1="112" x2="320" y2="112" stroke="#E1E4DF" stroke-width="0.6"/></g>
    <rect x="0" y="0" width="5" height="112" fill="#8E6B3D"/>
    <g color="#8E6B3D" stroke-linecap="round" stroke-linejoin="round"><rect x="63" y="52" width="86" height="34" rx="4" fill="currentColor" fill-opacity="0.1" stroke="currentColor" stroke-width="1.7"/><path d="M88 52 v-13 h36 v13 M63 63 h86" fill="none" stroke="currentColor" stroke-width="1.6"/><rect x="97" y="59" width="18" height="10" rx="2" fill="none" stroke="currentColor" stroke-width="1.2"/><path d="M182 35 h74 v34 h-40 l-13 11 v-11 h-21 z" fill="none" stroke="currentColor" stroke-width="1.6"/><circle cx="204" cy="49.05" r="2.75" fill="none" stroke="currentColor" stroke-width="1.6"/><path d="M198.5 61.7 q0 -6.6000000000000005 5.5 -6.6000000000000005 q5.5 0 5.5 6.6000000000000005" fill="none" stroke="currentColor" stroke-width="1.6" stroke-linecap="round"/><circle cx="227" cy="49.05" r="2.75" fill="none" stroke="currentColor" stroke-width="1.6"/><path d="M221.5 61.7 q0 -6.6000000000000005 5.5 -6.6000000000000005 q5.5 0 5.5 6.6000000000000005" fill="none" stroke="currentColor" stroke-width="1.6" stroke-linecap="round"/><circle cx="249" cy="49.05" r="2.75" fill="none" stroke="currentColor" stroke-width="1.6"/><path d="M243.5 61.7 q0 -6.6000000000000005 5.5 -6.6000000000000005 q5.5 0 5.5 6.6000000000000005" fill="none" stroke="currentColor" stroke-width="1.6" stroke-linecap="round"/></g>
    <g><rect x="272" y="9" width="37" height="17" rx="8.5" fill="#8E6B3D" fill-opacity=".10" stroke="#8E6B3D" stroke-opacity=".30"/><text x="290.5" y="20.5" text-anchor="middle" font-family="IBM Plex Mono, ui-monospace, monospace" font-size="7.5" font-weight="700" fill="#8E6B3D">BUILD</text></g>
    </svg>